<svg width="310.47" height="121.46" xmlns="http://www.w3.org/2000/svg" version="1.1" xml:space="preserve">
 <g>
  <title>Layer 1</title>
  <path class="st0" d="m120.27,18.7c-9.96,0 -18.07,-8.1 -18.07,-18.07c0,-0.35 -0.28,-0.63 -0.63,-0.63c-0.35,0 -0.63,0.28 -0.63,0.63c0,9.96 -8.1,18.07 -18.07,18.07c-0.35,0 -0.63,0.28 -0.63,0.63c0,0.35 0.28,0.63 0.63,0.63c9.96,0 18.07,8.1 18.07,18.07c0,0.35 0.28,0.63 0.63,0.63c0.35,0 0.63,-0.28 0.63,-0.63c0,-9.96 8.1,-18.07 18.07,-18.07c0.35,0 0.63,-0.28 0.63,-0.63c0,-0.35 -0.28,-0.63 -0.63,-0.63z" fill="#0099D3" id="svg_1"/>
  <path class="st1" d="m68.45,108.93c-1.67,0.32 -3.37,0.54 -5.06,0.68c-5.02,0.41 -10.28,0.26 -15.21,-0.9c-3.25,-0.76 -6.66,-2.03 -9.01,-4.5c-1.82,-1.9 -2.65,-4.58 -2.07,-7.17c0.29,-1.27 0.89,-2.46 1.72,-3.46c3.7,-4.45 10.62,-4.24 15.93,-4.21c6.26,0.03 11.41,0.81 17.67,0.55c5.59,-0.23 12.78,-1.21 17.59,-4.32c5.13,-3.32 7.02,-9.07 6.94,-14.96c-0.01,-0.62 -0.04,-1.25 -0.08,-1.87l-0.01,-0.13c-0.04,-0.45 -0.09,-0.9 -0.15,-1.35c-0.12,2.95 -0.94,6.28 -3.48,8.8c-3.51,3.48 -10.69,5.94 -23.42,3.22c-15.25,-3.25 -24.45,-6.82 -32.49,-7.86c-4.79,-0.62 -9.76,-0.36 -14.39,1.08c-6.05,1.88 -11.19,5.93 -13.34,12.01c-0.84,2.38 -1.22,4.9 -1.29,7.42c-0.12,4.5 1.2,8.76 3.77,12.46c1.42,2.05 3.15,3.91 5.06,5.52c0.1,0.08 0.2,0.17 0.29,0.25c0.14,0.12 0.28,0.23 0.42,0.35c2.47,2.01 5.17,3.8 8.09,5.34c1.58,0.83 3.19,1.56 4.81,2.21c1.06,0.37 2.17,0.75 3.31,1.17c21.93,6.88 46.32,-2.67 57.4,-23.73c1.12,-2.12 2.06,-4.29 2.83,-6.49c-1.27,3.61 -3.68,6.96 -6.3,9.71c-5.19,5.44 -12.17,8.79 -19.53,10.18z" fill="#0087D1" id="svg_2"/>
  <g id="svg_3">
   <path class="st0" d="m60.06,25.79c-16.14,-3.96 -33.22,0.71 -45.11,12.1c18.03,-15.45 49.48,8.42 64.05,15.11c18.85,8.65 12,-3.54 11.55,-4.32c0,-0.01 -0.01,-0.01 -0.01,-0.02c-0.01,-0.01 -0.01,-0.02 -0.01,-0.02l0,0c-4.43,-7.67 -11,-14.23 -19.42,-18.65c-3.58,-1.88 -7.29,-3.27 -11.05,-4.2" fill="#0099D3" id="svg_4"/>
   <g id="svg_5">
    <path class="st2" d="m37.31,42.09c7.42,1.43 14.56,4.1 21.52,6.99c6.53,2.71 12.91,5.75 19.44,8.45c2.44,1.01 5.44,2.14 7.99,2.84c1.62,0.45 3.5,0.94 5.19,0.58c2.51,-0.53 2.65,-3.15 2.2,-5.6c0.91,2.37 1.88,5.3 2.02,7.52c1.27,20.3 -33.12,5.49 -51.37,-0.06c-17.54,-5.34 -31.25,-2.64 -38.23,7.45c-0.41,0.59 -0.77,1.18 -1.1,1.78c-3.58,7.32 -2.88,14.56 -0.75,20.63c0.08,0.24 0.19,0.47 0.29,0.71c-3.46,-7.45 -5.01,-15.72 -4.41,-24.01c1.88,-16.58 11.42,-23 17.64,-25.87c0,0 7.21,-3.92 19.57,-1.41z" fill="#8EC43E" id="svg_6"/>
   </g>
  </g>
  <g id="svg_7">
   <path class="st1" d="m137.98,110.18l0,-17.51l10.88,0l0,2.36l-8.13,0l0,5.26l7,0l0,2.33l-7,0l0,7.56l-2.75,0z" fill="#0087D1" id="svg_8"/>
   <path class="st1" d="m151.9,110.18l0,-17.51l2.75,0l0,17.51l-2.75,0z" fill="#0087D1" id="svg_9"/>
   <path class="st1" d="m170.51,105.96c0,3.11 -2.18,4.51 -6.09,4.51c-2.59,0 -5.66,-0.26 -5.66,-0.26l0,-2.56c0,0 3.04,0.31 5.28,0.31c2.53,0 3.72,-0.7 3.72,-2.31l0,-0.73c0,-1.16 -0.27,-1.92 -2.15,-2.12l-2.96,-0.34c-2.37,-0.26 -3.96,-1.97 -3.96,-4.27l0,-1.4c0,-3 2.23,-4.4 5.98,-4.4c1.75,0 3.9,0.18 4.95,0.29l0,2.51c0,0 -3.1,-0.34 -4.63,-0.34c-2.5,0 -3.55,0.62 -3.55,2.28l0,0.7c0,1.04 0.35,1.92 2.1,2.12l3.1,0.36c2.29,0.26 3.88,1.76 3.88,4.07l0,1.58l-0.01,0z" fill="#0087D1" id="svg_10"/>
   <path class="st1" d="m184.4,110.18l0,-7.56l-7.73,0l0,7.56l-2.75,0l0,-17.51l2.75,0l0,7.61l7.73,0l0,-7.61l2.75,0l0,17.51l-2.75,0z" fill="#0087D1" id="svg_11"/>
   <path class="st1" d="m191.13,110.18l0,-17.51l10.88,0l0,2.36l-8.13,0l0,5.26l6.87,0l0,2.33l-6.87,0l0,5.18l8.35,0l0,2.38l-11.1,0z" fill="#0087D1" id="svg_12"/>
   <path class="st1" d="m215.72,110.18l-3.88,-7.35l-3.99,0l0,7.35l-2.75,0l0,-17.51l8.19,0c2.24,0 3.88,1.74 3.88,3.88l0,2.38c0,1.68 -1,3.11 -2.5,3.65l4.04,7.59l-2.99,0l0,0.01zm-1.29,-13c0,-1.45 -0.65,-2.15 -2.34,-2.15l-4.23,0l0,5.44l4.23,0c1.7,0 2.34,-0.7 2.34,-2.15l0,-1.14z" fill="#0087D1" id="svg_13"/>
   <path class="st1" d="m221.81,110.18l0,-17.51l2.75,0l0,17.51l-2.75,0z" fill="#0087D1" id="svg_14"/>
   <path class="st1" d="m228.92,110.18l0,-17.51l10.88,0l0,2.36l-8.13,0l0,5.26l6.87,0l0,2.33l-6.87,0l0,5.18l8.35,0l0,2.38l-11.1,0z" fill="#0087D1" id="svg_15"/>
   <path class="st1" d="m254.39,105.96c0,3.11 -2.18,4.51 -6.09,4.51c-2.59,0 -5.66,-0.26 -5.66,-0.26l0,-2.56c0,0 3.04,0.31 5.28,0.31c2.53,0 3.72,-0.7 3.72,-2.31l0,-0.73c0,-1.16 -0.27,-1.92 -2.15,-2.12l-2.96,-0.34c-2.37,-0.26 -3.96,-1.97 -3.96,-4.27l0,-1.4c0,-3 2.23,-4.4 5.98,-4.4c1.75,0 3.9,0.18 4.95,0.29l0,2.51c0,0 -3.1,-0.34 -4.63,-0.34c-2.5,0 -3.55,0.62 -3.55,2.28l0,0.7c0,1.04 0.35,1.92 2.1,2.12l3.1,0.36c2.29,0.26 3.88,1.76 3.88,4.07l0,1.58l-0.01,0z" fill="#0087D1" id="svg_16"/>
  </g>
  <g id="svg_17">
   <path class="st3" d="m194.51,48l0,21.96l-7.15,2.62c-0.81,0.26 -1.84,0.39 -2.58,0.39c-2.95,0 -4.49,-1.9 -4.49,-5.31l0,-19.66l-7.51,0l0,21.83c0,5.77 3.68,9.97 11.64,9.97c0.59,0 1.4,-0.07 2.06,-0.26l8.03,-2.95l0,2.49l7.51,0l0,-31.08l-7.51,0z" fill="#0087D1" stroke="#0081CC" stroke-width="1.1792" stroke-miterlimit="10" id="svg_18"/>
   <path class="st3" d="m216.95,79.08l0,-21.97l7.15,-2.62c0.81,-0.26 1.84,-0.39 2.58,-0.39c2.95,0 4.49,1.9 4.49,5.31l0,19.67l7.51,0l0,-21.83c0,-5.77 -3.68,-9.97 -11.64,-9.97c-0.59,0 -1.4,0.07 -2.06,0.26l-8.03,2.95l0,-2.49l-7.51,0l0,31.08l7.51,0z" fill="#0087D1" stroke="#0081CC" stroke-width="1.1792" stroke-miterlimit="10" id="svg_19"/>
   <path class="st3" d="m253.53,79.08l0,-21.97l7.14,-2.62c0.81,-0.26 1.84,-0.39 2.58,-0.39c2.95,0 4.49,1.9 4.49,5.31l0,19.67l7.51,0l0,-21.83c0,-5.77 -3.68,-9.97 -11.64,-9.97c-0.59,0 -1.4,0.07 -2.06,0.26l-8.03,2.95l0,-12.13l-7.51,0l0,40.72l7.52,0z" fill="#0087D1" stroke="#0081CC" stroke-width="1.1792" stroke-miterlimit="10" id="svg_20"/>
   <path class="st3" d="m298.66,79.8c6.92,0 11.12,-3.54 11.12,-8.52l0,-13.51c0,-8.46 -6.04,-10.49 -13.26,-10.49c-2.43,0 -12.59,0.66 -12.59,0.66l0,5.9c0,0 7.44,-0.59 11.12,-0.59c4.49,0 7.22,1.11 7.22,4.39l0,2.16l-8.91,0.33c-9.06,0.33 -12.3,4.59 -12.3,8.92l0,2.23c0,4.98 4.2,8.52 11.12,8.52l6.48,0zm3.61,-10.75l0,1.86c0,2.16 -1.91,3.21 -3.61,3.21l-6.55,0c-1.69,0 -3.61,-1.05 -3.61,-3.21l0,-1.86c0,-2.29 2.14,-3.61 4.79,-3.74l8.99,-0.46l0,5.18" fill="#0087D1" stroke="#0081CC" stroke-width="1.1792" stroke-miterlimit="10" id="svg_21"/>
   <path class="st3" d="m149.1,47.28c-6.92,0 -11.12,3.54 -11.12,8.52l0,13.51c0,8.46 6.04,10.49 13.26,10.49c2.43,0 14.73,-0.84 14.73,-0.84l0,-5.9c0,0 -9.57,0.77 -13.26,0.77c-4.49,0 -7.22,-1.11 -7.22,-4.39l0,-2.16l8.91,-0.33c9.06,-0.33 12.3,-4.59 12.3,-8.92l0,-2.23c0,-4.98 -4.2,-8.52 -11.12,-8.52l-6.48,0zm-3.61,10.75l0,-1.86c0,-2.16 1.91,-3.21 3.61,-3.21l6.55,0c1.69,0 3.61,1.05 3.61,3.21l0,1.86c0,2.29 -2.14,3.61 -4.79,3.74l-8.99,0.46l0,-5.18" fill="#0087D1" stroke="#0081CC" stroke-width="1.1792" stroke-miterlimit="10" id="svg_22"/>
  </g>
  <text fill="#0087D1" stroke="#0081CC" x="138" y="30" id="svg_28" stroke-width="1.1792" font-size="24" font-family="Noto Sans JP" text-anchor="start" xml:space="preserve">수발주시스템</text>
 </g>

</svg>